# xmcd
#
# Track frame offsets:
#	150
#	28060
#	49637
#	65625
#	91642
#	109745
#	122417
#	139850
#	176280
#	206935
#	223840
#
# Disc length: 3275 seconds
#
# Revision: 1
# Processed by: cddbd v1.5.1PL0 Copyright (c) Steve Scherf et al.
# Submitted via: audiograbber 1.83.01
#
DISCID=9c0cc90b
DTITLE=Guitar Shorty - Alone In His Field
DYEAR=1972
DGENRE=Blues
TTITLE0=Easter Blues
TTITLE1=Boogie, Now
TTITLE2=Don't Cry Baby
TTITLE3=Like A Damn Fool
TTITLE4=Jessie Jones
TTITLE5=Whistling Blues
TTITLE6=Near The Cross
TTITLE7=Pull Your Dress Down
TTITLE8=Working Hard
TTITLE9=Now Tell Me Baby
TTITLE10=Shorty's Talking Boogie
EXTD=
EXTT0=
EXTT1=
EXTT2=
EXTT3=
EXTT4=
EXTT5=
EXTT6=
EXTT7=
EXTT8=
EXTT9=
EXTT10=
PLAYORDER=
